<svg xmlns="http://www.w3.org/2000/svg" viewBox="0 0 512 512">
  <defs>
    <linearGradient id="sky" x1="0" y1="0" x2="0" y2="1">
      <stop offset="0" stop-color="#1a2158"/>
      <stop offset="1" stop-color="#43307c"/>
    </linearGradient>
    <linearGradient id="body" x1="0" y1="0" x2="1" y2="0">
      <stop offset="0" stop-color="#ffffff"/>
      <stop offset="1" stop-color="#c3c9e6"/>
    </linearGradient>
    <linearGradient id="fl" x1="0" y1="0" x2="0" y2="1">
      <stop offset="0" stop-color="#ffdf6b"/>
      <stop offset="1" stop-color="#ff5a3c"/>
    </linearGradient>
  </defs>
  <rect width="512" height="512" rx="110" fill="url(#sky)"/>
  <circle cx="96" cy="110" r="7" fill="#fff" opacity=".9"/>
  <circle cx="420" cy="90" r="5" fill="#fff" opacity=".7"/>
  <circle cx="440" cy="180" r="6" fill="#fff" opacity=".8"/>
  <circle cx="70" cy="230" r="4" fill="#fff" opacity=".6"/>
  <circle cx="390" cy="330" r="5" fill="#fff" opacity=".6"/>
  <circle cx="100" cy="380" r="6" fill="#fff" opacity=".7"/>
  <g>
    <path d="M256,382 C244,412 248,438 256,462 C264,438 268,412 256,382 Z" fill="url(#fl)"/>
    <path d="M196,268 L196,352 L146,392 Z" fill="#e04848"/>
    <path d="M316,268 L316,352 L366,392 Z" fill="#e04848"/>
    <rect x="196" y="140" width="120" height="240" rx="26" fill="url(#body)"/>
    <path d="M196,156 C196,96 226,58 256,40 C286,58 316,96 316,156 Z" fill="#ff5a5a"/>
    <circle cx="256" cy="210" r="38" fill="#a8e1ff" stroke="#39406e" stroke-width="10"/>
    <rect x="196" y="330" width="120" height="22" fill="#ff5a5a"/>
  </g>
</svg>
